<svg width="420" height="148" viewBox="0 0 420 148" fill="none" xmlns="http://www.w3.org/2000/svg">
  <style>
    @keyframes spin {
      from { transform: rotate(-15deg); }
      to   { transform: rotate(15deg); }
    }
    @keyframes b1 { 0%,100%{height:4px}  50%{height:14px} }
    @keyframes b2 { 0%,100%{height:10px} 50%{height:4px}  }
    @keyframes b3 { 0%,100%{height:6px}  50%{height:14px} }
    @keyframes b4 { 0%,100%{height:14px} 50%{height:6px}  }
    @keyframes progress { 0%{width:80px} 100%{width:280px} }
    .album         { animation: spin 2s ease-in-out infinite alternate; transform-origin: 50px 50px; }
    .b1 { animation: b1 0.8s ease-in-out infinite;       }
    .b2 { animation: b2 0.8s ease-in-out infinite 0.1s;  }
    .b3 { animation: b3 0.8s ease-in-out infinite 0.2s;  }
    .b4 { animation: b4 0.8s ease-in-out infinite 0.15s; }
    .progress-fill { animation: progress 6s ease-in-out infinite alternate; }
  </style>

  <!-- Card background + border -->
  <rect width="420" height="148" rx="14" fill="#1a1a2e"/>
  <rect width="420" height="148" rx="14" fill="none" stroke="#2d2d5e" stroke-width="1"/>

  <!-- Album art (animated rock) -->
  <g class="album">
    <rect x="16" y="16" width="68" height="68" rx="10" fill="url(#albumGrad)"/>
    <text x="50" y="60" font-size="28" text-anchor="middle" fill="rgba(255,255,255,0.3)" font-family="Arial">♪</text>
  </g>

  <!-- NOW PLAYING label -->
  <text x="102" y="34" font-size="10" font-weight="700" fill="#1db954"
        font-family="Arial, sans-serif" letter-spacing="1">NOW PLAYING</text>

  <!-- Animated equaliser bars -->
  <g transform="translate(200, 34)">
    <rect class="b1" x="0"  y="0" width="3" height="4"  rx="2" fill="#1db954" transform="translate(0,10)"/>
    <rect class="b2" x="5"  y="0" width="3" height="10" rx="2" fill="#1db954" transform="translate(0,4)"/>
    <rect class="b3" x="10" y="0" width="3" height="6"  rx="2" fill="#1db954" transform="translate(0,8)"/>
    <rect class="b4" x="15" y="0" width="3" height="14" rx="2" fill="#1db954" transform="translate(0,0)"/>
  </g>

  <!-- Song name -->
  <text x="102" y="54" font-size="16" font-weight="700" fill="#ffffff"
        font-family="Arial, sans-serif">Blinding Lights</text>

  <!-- Artist -->
  <text x="102" y="70" font-size="12" fill="#8b949e"
        font-family="Arial, sans-serif">The Weeknd</text>

  <!-- Progress bar track -->
  <rect x="102" y="82" width="300" height="3" rx="2" fill="#2a2a4a"/>
  <!-- Progress bar fill (animated) -->
  <rect class="progress-fill" x="102" y="82" width="80" height="3" rx="2" fill="#1db954"/>

  <!-- Separator -->
  <line x1="16" y1="101" x2="404" y2="101" stroke="#2d2d5e" stroke-width="1"/>

  <!-- ── PLAY ON SPOTIFY button (centered pill) ── -->
  <rect x="110" y="112" width="200" height="26" rx="13" fill="#1db954"/>

  <!-- Spotify logo — three concentric arcs -->
  <path d="M122 121.5 Q128 119.2 134 121.5" stroke="#000" stroke-width="1.8" fill="none" stroke-linecap="round"/>
  <path d="M122.5 124.5 Q128 122.5 133.5 124.5" stroke="#000" stroke-width="1.6" fill="none" stroke-linecap="round"/>
  <path d="M123.5 127.2 Q128 125.8 132.5 127.2" stroke="#000" stroke-width="1.4" fill="none" stroke-linecap="round"/>

  <!-- Button text -->
  <text x="224" y="129" font-size="10.5" font-weight="700" fill="#000000"
        font-family="Arial, sans-serif" text-anchor="middle" letter-spacing="0.8">&#x25B6;  PLAY ON SPOTIFY</text>

  <defs>
    <linearGradient id="albumGrad" x1="0" y1="0" x2="68" y2="68" gradientUnits="userSpaceOnUse">
      <stop offset="0%" stop-color="#c724d4"/>
      <stop offset="100%" stop-color="#7928ca"/>
    </linearGradient>
  </defs>
</svg>
